<svg width="400" height="240" viewBox="0 0 400 240" fill="none" xmlns="http://www.w3.org/2000/svg">
  <defs>
    <linearGradient id="productsGradient" x1="0%" y1="0%" x2="100%" y2="100%">
      <stop offset="0%" stop-color="#d1fae5" />
      <stop offset="100%" stop-color="#ecfdf5" />
    </linearGradient>
  </defs>
  <rect width="400" height="240" rx="28" fill="url(#productsGradient)" />
  <rect x="36" y="56" width="328" height="60" rx="20" fill="#ffffff" opacity="0.95" />
  <rect x="36" y="132" width="328" height="60" rx="20" fill="#ffffff" opacity="0.85" />
  <circle cx="80" cy="86" r="18" fill="#059669" opacity="0.15" />
  <circle cx="80" cy="162" r="18" fill="#10b981" opacity="0.15" />
  <rect x="112" y="72" width="140" height="12" rx="6" fill="#0f172a" opacity="0.25" />
  <rect x="112" y="90" width="100" height="10" rx="5" fill="#0f172a" opacity="0.15" />
  <rect x="112" y="148" width="160" height="12" rx="6" fill="#0f172a" opacity="0.25" />
  <rect x="112" y="166" width="120" height="10" rx="5" fill="#0f172a" opacity="0.15" />
  <rect x="280" y="72" width="64" height="18" rx="9" fill="#059669" opacity="0.5" />
  <rect x="280" y="148" width="64" height="18" rx="9" fill="#10b981" opacity="0.5" />
  <rect x="200" y="208" width="160" height="16" rx="8" fill="#059669" opacity="0.6" />
  <rect x="40" y="208" width="136" height="16" rx="8" fill="#10b981" opacity="0.2" />
</svg>
